<svg xmlns="http://www.w3.org/2000/svg" width="13.279" height="14.487" viewBox="0 0 13.279 14.487"><defs><style>.a{fill:#be851a;fill-rule:evenodd;}</style></defs><path class="a" d="M1,13.279H2.207V0H13.072V13.279h1.207v1.207H1Zm4.225-1.811v2.414H7.036V11.469Zm3.018,0v2.414h1.811V11.469ZM4.622,8.451H3.414V9.658H4.622Zm4.829,0H8.243V9.658H9.451Zm-2.414,0H5.829V9.658H7.036Zm4.829,0H10.658V9.658h1.207ZM4.622,6.036H3.414V7.243H4.622Zm4.829,0H8.243V7.243H9.451Zm-2.414,0H5.829V7.243H7.036Zm4.829,0H10.658V7.243h1.207ZM4.622,3.622H3.414V4.829H4.622Zm4.829,0H8.243V4.829H9.451Zm-2.414,0H5.829V4.829H7.036Zm4.829,0H10.658V4.829h1.207ZM4.622,1.207H3.414V2.414H4.622Zm4.829,0H8.243V2.414H9.451Zm-2.414,0H5.829V2.414H7.036Zm4.829,0H10.658V2.414h1.207Z" transform="translate(-1)"/></svg>