<svg xmlns="http://www.w3.org/2000/svg" width="20.98" height="15.735" viewBox="0 0 20.98 15.735"><defs><style>.a{fill:#ccc;}</style></defs><path class="a" d="M18.576,0H2.4A2.406,2.406,0,0,0,0,2.4V13.331a2.406,2.406,0,0,0,2.4,2.4H18.576a2.406,2.406,0,0,0,2.4-2.4V2.4A2.406,2.406,0,0,0,18.576,0ZM6.556,3.5A2.185,2.185,0,1,1,4.371,5.682,2.188,2.188,0,0,1,6.556,3.5Zm3.934,8.086a.656.656,0,0,1-.656.656H3.278a.656.656,0,0,1-.656-.656v-.437a2.406,2.406,0,0,1,2.4-2.4h3.06a2.406,2.406,0,0,1,2.4,2.4Zm7.212.656H12.894a.656.656,0,0,1,0-1.311H17.7a.656.656,0,0,1,0,1.311Zm0-3.5H12.894a.656.656,0,1,1,0-1.311H17.7a.656.656,0,1,1,0,1.311Zm0-3.5H12.894a.656.656,0,1,1,0-1.311H17.7a.656.656,0,1,1,0,1.311Zm0,0"/></svg>