<svg xmlns="http://www.w3.org/2000/svg" width="32.379" height="16.945" viewBox="0 0 32.379 16.945"><defs><style>.a{fill:#ccc;}</style></defs><g transform="translate(0 -122.028)"><g transform="translate(6.544 129.453)"><g transform="translate(0 0)"><path class="a" d="M103.825,239.433l-.349,1.258h.682Z" transform="translate(-103.476 -239.433)"/></g></g><g transform="translate(10.016 130.637)"><g transform="translate(0 0)"><path class="a" d="M159.228,258.153h-.851v.629h.814a.317.317,0,0,0,.037-.629Z" transform="translate(-158.377 -258.153)"/></g></g><g transform="translate(10.016 129.257)"><g transform="translate(0 0)"><path class="a" d="M159.112,236.342h-.735v.576h.7a.255.255,0,0,0,.28-.291C159.36,236.421,159.244,236.342,159.112,236.342Z" transform="translate(-158.377 -236.342)"/></g></g><g transform="translate(0 135.956)"><g transform="translate(0 0)"><path class="a" d="M0,342.261v.157a2.864,2.864,0,0,0,2.861,2.861H29.519a2.864,2.864,0,0,0,2.861-2.861v-.157Z" transform="translate(0 -342.261)"/></g></g><g transform="translate(0 127.157)"><g transform="translate(0 0)"><path class="a" d="M0,203.131v6.687H32.379v-6.687Zm7.617,4.975-.227-.735h-1l-.222.735H5.075l1.4-3.752H7.31l1.4,3.752Zm3.213,0H8.985v-3.752h2.177a.911.911,0,0,1,.856.962.932.932,0,0,1-.539.867.92.92,0,0,1,.7.962C12.177,207.821,11.57,208.106,10.83,208.106Zm3.372.032a1.893,1.893,0,0,1-1.781-1.94,1.821,1.821,0,0,1,1.813-1.866,1.536,1.536,0,0,1,1.432.819l-.787.56a.669.669,0,0,0-.666-.465c-.518,0-.745.513-.745.983,0,.523.28.994.756.994a.65.65,0,0,0,.639-.46l.84.5A1.617,1.617,0,0,1,14.2,208.138Zm3.483-1.041H16.03v-.9h1.654Zm3.055,1.009H18.292v-.9h.75v-1.913a1.48,1.48,0,0,1-.872.455v-.92h0a1.617,1.617,0,0,0,.872-.5h1.025v2.88h.671v.9Zm3.208,0H21.055c0-.973.116-1.416.92-1.8.439-.206.819-.391.819-.777a.305.305,0,0,0-.344-.333,1.237,1.237,0,0,0-.777.381l-.618-.671a2.1,2.1,0,0,1,1.538-.6c.856,0,1.348.433,1.348,1.2a1.18,1.18,0,0,1-.745,1.12c-.3.174-.645.344-.645.571h1.4Zm1.643.048a1.265,1.265,0,0,1-1.205-.613l.513-.7a.749.749,0,0,0,.671.391c.238,0,.47-.085.47-.307,0-.275-.349-.359-.972-.359h-.174v-.83h.169c.465,0,.883-.09.883-.354,0-.2-.222-.2-.28-.2a.834.834,0,0,0-.692.344l-.634-.745a1.893,1.893,0,0,1,1.321-.476c.782,0,1.364.444,1.364,1.025a.779.779,0,0,1-.682.766.933.933,0,0,1,.745.967C27.085,207.853,26.293,208.154,25.59,208.154Z" transform="translate(0 -203.131)"/></g></g><g transform="translate(0 122.028)"><g transform="translate(0 0)"><path class="a" d="M29.518,122.028H2.861A2.864,2.864,0,0,0,0,124.889v.157H32.379v-.157A2.864,2.864,0,0,0,29.518,122.028Z" transform="translate(0 -122.028)"/></g></g></g></svg>