<svg xmlns="http://www.w3.org/2000/svg" width="16.003" height="16.003" viewBox="0 0 16.003 16.003"><path d="M175.5,353h-4.334a.5.5,0,0,1,0-1H175.5a.5.5,0,0,1,0,1Zm0,0" transform="translate(-165.334 -340.998)"/><path d="M175.5,417h-4.334a.5.5,0,0,1,0-1H175.5a.5.5,0,1,1,0,1Zm0,0" transform="translate(-165.334 -402.997)"/><path d="M14.169,4h-.833V2a2,2,0,0,0-2-2H4.667a2,2,0,0,0-2,2V4H1.834A1.834,1.834,0,0,0,0,5.835v4.334A1.834,1.834,0,0,0,1.834,12h.833v2a2,2,0,0,0,2,2h6.668a2,2,0,0,0,2-2V12h.833A1.834,1.834,0,0,0,16,10.169V5.835A1.834,1.834,0,0,0,14.169,4ZM4,2a.667.667,0,0,1,.667-.667h6.668A.667.667,0,0,1,12,2V4H4Zm8,12a.667.667,0,0,1-.667.667H4.667A.667.667,0,0,1,4,14V10h8Zm0,0" transform="translate(0)"/></svg>