<svg xmlns="http://www.w3.org/2000/svg" width="13.299" height="13.299" viewBox="0 0 13.299 13.299"><defs><style>.a{fill:#be851a;}</style></defs><path class="a" d="M174.685,352.831h-3.6a.416.416,0,0,1,0-.831h3.6a.416.416,0,0,1,0,.831Zm0,0" transform="translate(-166.235 -342.857)"/><path class="a" d="M174.685,416.831h-3.6a.416.416,0,0,1,0-.831h3.6a.416.416,0,1,1,0,.831Zm0,0" transform="translate(-166.235 -405.194)"/><path class="a" d="M11.775,3.325h-.693V1.662A1.664,1.664,0,0,0,9.42,0H3.879A1.664,1.664,0,0,0,2.216,1.662V3.325H1.524A1.524,1.524,0,0,0,0,4.849v3.6A1.524,1.524,0,0,0,1.524,9.974h.693v1.662A1.662,1.662,0,0,0,3.879,13.3H9.42a1.662,1.662,0,0,0,1.662-1.662V9.974h.693A1.524,1.524,0,0,0,13.3,8.451v-3.6A1.524,1.524,0,0,0,11.775,3.325ZM3.325,1.662a.555.555,0,0,1,.554-.554H9.42a.555.555,0,0,1,.554.554V3.325H3.325Zm6.65,9.974a.555.555,0,0,1-.554.554H3.879a.555.555,0,0,1-.554-.554V8.312h6.65Zm0,0" transform="translate(0)"/></svg>