<svg xmlns="http://www.w3.org/2000/svg" width="20.409" height="15.307" viewBox="0 0 20.409 15.307"><defs><style>.a{fill:#be851a;}</style></defs><path class="a" d="M19.984,6.4a.425.425,0,0,1,.425.425v.435c0,.674-.787.841-1.374.841l-.924-1.7ZM18.759,9.383a6.12,6.12,0,0,1,.8,3.118,8.455,8.455,0,0,1-.855,3.385v1.571a.851.851,0,0,1-.85.85H16.582a.851.851,0,0,1-.85-.85v-.85H4.677v.85a.851.851,0,0,1-.85.85H2.551a.851.851,0,0,1-.85-.85V15.886A8.455,8.455,0,0,1,.846,12.5a6.12,6.12,0,0,1,.8-3.118c.7-1.307,1.574-2.936,2.492-4.466.7-1.175,1.073-1.452,1.937-1.606A22.017,22.017,0,0,1,10.2,3a22.017,22.017,0,0,1,4.125.31c.864.155,1.233.431,1.937,1.606C17.185,6.447,18.054,8.076,18.759,9.383ZM5.1,11.929A1.276,1.276,0,1,0,3.827,13.2,1.276,1.276,0,0,0,5.1,11.929Zm8.5.85a.425.425,0,0,0-.425-.425H7.228a.425.425,0,1,0,0,.85h5.953A.425.425,0,0,0,13.606,12.779Zm2.5-4.7A17.138,17.138,0,0,0,14.72,5.407a1.137,1.137,0,0,0-.739-.481A20.227,20.227,0,0,0,10.2,4.621a20.227,20.227,0,0,0-3.777.305,1.131,1.131,0,0,0-.739.481A17.1,17.1,0,0,0,4.3,8.079a35.508,35.508,0,0,0,5.9.423A35.508,35.508,0,0,0,16.107,8.079Zm1.751,3.85A1.276,1.276,0,1,0,16.582,13.2,1.276,1.276,0,0,0,17.858,11.929ZM2.3,6.4H.425A.425.425,0,0,0,0,6.827v.435c0,.674.787.841,1.374.841Z" transform="translate(0 -3)"/></svg>